<svg width="334" height="544" xmlns="http://www.w3.org/2000/svg" xmlns:xlink="http://www.w3.org/1999/xlink" xml:space="preserve" overflow="hidden"><defs><clipPath id="clip0"><rect x="73" y="76" width="334" height="544"/></clipPath></defs><g clip-path="url(#clip0)" transform="translate(-73 -76)"><path d="M-2.96193 2.96193-2.96193-540.551 330.995-540.551 330.995 2.96193-2.96193 2.96193Z" fill="#FFFFFF" transform="matrix(1.00013 0 0 1 75.9623 616.795)"/><path d="M216.221-212.148C216.221-212.148 313.224-212.148 313.224-212.148 317.667-212.148 322.109-216.591 322.109-221.034 322.109-221.034 322.109-522.78 322.109-522.78 322.109-527.223 317.667-531.666 313.224-531.666 313.224-531.666 216.221-531.666 216.221-531.666 211.778-531.666 207.335-527.223 207.335-522.78 207.335-522.78 207.335-221.034 207.335-221.034 207.335-216.591 211.778-212.148 216.221-212.148" stroke="#007ACC" stroke-width="0.740481" fill="#E6F2FF" transform="matrix(1.00013 0 0 1 75.9623 616.795)"/><text font-family="Times New Roman,Times New Roman_MSFontService,sans-serif" font-weight="400" font-size="11" transform="matrix(0.740577 0 0 0.740481 289.901 96)">Feature Enhancement </text><text font-family="Times New Roman,Times New Roman_MSFontService,sans-serif" font-weight="400" font-size="11" transform="matrix(0.740577 0 0 0.740481 362.733 96)">(</text><text font-family="Times New Roman,Times New Roman_MSFontService,sans-serif" font-weight="400" font-size="11" transform="matrix(0.740577 0 0 0.740481 365.446 96)">Offline</text><text font-family="Times New Roman,Times New Roman_MSFontService,sans-serif" font-weight="400" font-size="11" transform="matrix(0.740577 0 0 0.740481 388.823 96)">)</text><path d="M31.1002-5.92385C31.1002-5.92385 174.754-5.92385 174.754-5.92385 179.196-5.92385 183.639-10.3667 183.639-14.8096 183.639-14.8096 183.639-177.716 183.639-177.716 183.639-182.158 179.196-186.601 174.754-186.601 174.754-186.601 31.1002-186.601 31.1002-186.601 26.6573-186.601 22.2144-182.158 22.2144-177.716 22.2144-177.716 22.2144-14.8096 22.2144-14.8096 22.2144-10.3667 26.6573-5.92385 31.1002-5.92385" stroke="#3AB54A" stroke-width="0.740481" fill="#E8FFE8" transform="matrix(1.00013 0 0 1 75.9623 616.795)"/><text font-family="Times New Roman,Times New Roman_MSFontService,sans-serif" font-weight="400" font-size="11" transform="matrix(0.740577 0 0 0.740481 138.296 441)">Confidence‑UCB Search</text><path d="M23.6954-212.148C23.6954-212.148 121.439-212.148 121.439-212.148 125.882-212.148 130.325-216.591 130.325-221.034 130.325-221.034 130.325-522.78 130.325-522.78 130.325-527.223 125.882-531.666 121.439-531.666 121.439-531.666 23.6954-531.666 23.6954-531.666 19.2525-531.666 14.8096-527.223 14.8096-522.78 14.8096-522.78 14.8096-221.034 14.8096-221.034 14.8096-216.591 19.2525-212.148 23.6954-212.148" stroke="#D87A00" stroke-width="0.740481" fill="#FFF2E6" transform="matrix(1.00013 0 0 1 75.9623 616.795)"/><text font-family="Times New Roman,Times New Roman_MSFontService,sans-serif" font-weight="400" font-size="11" transform="matrix(0.740577 0 0 0.740481 106.224 96)">Dynamic Tuning </text><text font-family="Times New Roman,Times New Roman_MSFontService,sans-serif" font-weight="400" font-size="11" transform="matrix(0.740577 0 0 0.740481 163.256 96)">(</text><text font-family="Times New Roman,Times New Roman_MSFontService,sans-serif" font-weight="400" font-size="11" transform="matrix(0.740577 0 0 0.740481 165.969 96)">Online</text><text font-family="Times New Roman,Times New Roman_MSFontService,sans-serif" font-weight="400" font-size="11" transform="matrix(0.740577 0 0 0.740481 188.141 96)">)</text><path d="M278.14-509.821 275.918-512.783 260.368-512.783 258.147-509.821 222.426-509.821 222.426-479.462 278.14-479.462 278.14-509.821Z" stroke="#000000" stroke-width="0.740481" fill="#FFFFFF" transform="matrix(1.00013 0 0 1 75.9623 616.795)"/><text font-family="Times New Roman,Times New Roman_MSFontService,sans-serif" font-weight="400" font-size="14" transform="matrix(0.740577 0 0 0.740481 305.835 120)">Historical</text><text font-family="Cambria Math,Cambria Math_MSFontService,sans-serif" font-weight="400" font-size="14" transform="matrix(0.740577 0 0 0.740481 313.34 132)">⟨</text><text font-family="Times New Roman,Times New Roman_MSFontService,sans-serif" font-weight="400" font-size="14" transform="matrix(0.740577 0 0 0.740481 317.066 132)">q</text><text font-family="Times New Roman,Times New Roman_MSFontService,sans-serif" font-weight="400" font-size="14" transform="matrix(0.740577 0 0 0.740481 322.25 132)">,</text><text font-family="Times New Roman,Times New Roman_MSFontService,sans-serif" font-weight="400" font-size="14" transform="matrix(0.740577 0 0 0.740481 324.842 132)">a</text><text font-family="Times New Roman,Times New Roman_MSFontService,sans-serif" font-weight="400" font-size="14" transform="matrix(0.740577 0 0 0.740481 329.444 132)">,</text><text font-family="Times New Roman,Times New Roman_MSFontService,sans-serif" font-weight="400" font-size="14" transform="matrix(0.740577 0 0 0.740481 332.036 132)">f</text><text font-family="Cambria Math,Cambria Math_MSFontService,sans-serif" font-weight="400" font-size="14" transform="matrix(0.740577 0 0 0.740481 335.488 132)">⟩</text><path d="M280.642-440.586 219.923-440.586 219.923-410.227 280.642-410.227 280.642-440.586Z" stroke="#000000" stroke-width="0.740481" fill="#C6E2FF" transform="matrix(1.00013 0 0 1 75.9623 616.795)"/><text font-family="Times New Roman,Times New Roman_MSFontService,sans-serif" font-weight="400" font-size="14" transform="matrix(0.740577 0 0 0.740481 310.733 189)">Feature</text><text font-family="Times New Roman,Times New Roman_MSFontService,sans-serif" font-weight="400" font-size="14" transform="matrix(0.740577 0 0 0.740481 301.089 201)">Extraction z</text><path d="M250.283-479.203C250.283-470.413 250.283-459.054 250.283-449.102" stroke="#000000" stroke-width="0.740481" fill="none" transform="matrix(1.00013 0 0 1 75.9623 616.795)"/><path d="M252.874-449.346 250.283-441.941 247.691-449.346 252.874-449.346Z" stroke="#000000" stroke-width="0.740481" transform="matrix(1.00013 0 0 1 75.9623 616.795)"/><path d="M302.205-375.794 213.17-375.794 213.17-349.137 302.205-349.137 302.205-375.794Z" stroke="#000000" stroke-width="0.740481" fill="#C6E2FF" transform="matrix(1.00013 0 0 1 75.9623 616.795)"/><text font-family="Times New Roman,Times New Roman_MSFontService,sans-serif" font-weight="400" font-size="14" transform="matrix(0.740577 0 0 0.740481 293.945 258)">LightGBM‑Ranker</text><path d="M252.038-410.101C252.963-402.407 254.118-392.825 255.14-384.332" stroke="#000000" stroke-width="0.740481" fill="none" transform="matrix(1.00013 0 0 1 75.9623 616.795)"/><path d="M257.702-384.776 256.014-377.112 252.556-384.154 257.702-384.776Z" stroke="#000000" stroke-width="0.740481" transform="matrix(1.00013 0 0 1 75.9623 616.795)"/><path d="M274.259-310.262 212.977-310.262 212.977-283.604 274.259-283.604 274.259-310.262Z" stroke="#000000" stroke-width="0.740481" fill="#C6E2FF" transform="matrix(1.00013 0 0 1 75.9623 616.795)"/><text font-family="Times New Roman,Times New Roman_MSFontService,sans-serif" font-weight="400" font-size="14" transform="matrix(0.740577 0 0 0.740481 294.125 324)">Quantile RF</text><path d="M254.911-349.07C253.015-340.444 250.46-328.811 248.254-318.792" stroke="#000000" stroke-width="0.740481" fill="none" transform="matrix(1.00013 0 0 1 75.9623 616.795)"/><path d="M250.801-318.289 246.684-311.617 245.736-319.407 250.801-318.289Z" stroke="#000000" stroke-width="0.740481" transform="matrix(1.00013 0 0 1 75.9623 616.795)"/><text font-family="Times New Roman,Times New Roman_MSFontService,sans-serif" font-weight="400" font-size="9" transform="matrix(0.740577 0 0 0.740481 327.724 290)">residuals</text><path d="M273.149-244.729 214.088-244.729 214.088-241.767 211.126-241.767 211.126-238.805 214.088-238.805 214.088-223.996 211.126-223.996 211.126-221.034 214.088-221.034 214.088-218.072 273.149-218.072 273.149-244.729Z" stroke="#000000" stroke-width="0.740481" fill="#FFFFFF" transform="matrix(1.00013 0 0 1 75.9623 616.795)"/><path d="M214.088-241.767 217.05-241.767 217.05-238.805 214.088-238.805" stroke="#000000" stroke-width="0.740481" fill="none" transform="matrix(1.00013 0 0 1 75.9623 616.795)"/><path d="M214.088-223.996 217.05-223.996 217.05-221.034 214.088-221.034" stroke="#000000" stroke-width="0.740481" fill="none" transform="matrix(1.00013 0 0 1 75.9623 616.795)"/><text font-family="Times New Roman,Times New Roman_MSFontService,sans-serif" font-weight="400" font-size="14" transform="matrix(0.740577 0 0 0.740481 295.524 389)">Predictor </text><text font-family="Times New Roman,Times New Roman_MSFontService,sans-serif" font-weight="400" font-size="14" transform="matrix(0.740577 0 0 0.740481 336.121 389)">Φ</text><path d="M270.32-348.974C273.497-345.05 276.54-340.518 278.421-335.808 287.048-314.245 287.766-305.708 280.642-283.604 276.851-271.831 269.254-260.479 261.923-251.445" stroke="#000000" stroke-width="0.740481" fill="none" transform="matrix(1.00013 0 0 1 75.9623 616.795)"/><path d="M263.945-249.824 257.162-245.877 260.005-253.193 263.945-249.824Z" stroke="#000000" stroke-width="0.740481" transform="matrix(1.00013 0 0 1 75.9623 616.795)"/><path d="M243.618-283.538C243.618-274.911 243.618-263.278 243.618-253.259" stroke="#000000" stroke-width="0.740481" fill="none" transform="matrix(1.00013 0 0 1 75.9623 616.795)"/><path d="M246.21-253.511 243.618-246.106 241.027-253.511 246.21-253.511Z" stroke="#000000" stroke-width="0.740481" transform="matrix(1.00013 0 0 1 75.9623 616.795)"/><path d="M177.064-164.757 119.129-164.757 119.129-134.397 177.064-134.397 177.064-164.757Z" stroke="#000000" stroke-width="0.740481" fill="#CDF1D1" transform="matrix(1.00013 0 0 1 75.9623 616.795)"/><text font-family="Times New Roman,Times New Roman_MSFontService,sans-serif" font-weight="400" font-size="14" transform="matrix(0.740577 0 0 0.740481 200.322 465)">UCB select</text><text font-family="Times New Roman,Times New Roman_MSFontService,sans-serif" font-weight="400" font-size="14" transform="matrix(0.740577 0 0 0.740481 218.77 477)">π</text><text font-family="Cambria Math,Cambria Math_MSFontService,sans-serif" font-weight="400" font-size="14" transform="matrix(0.740577 0 0 0.740481 224.004 477)">⋆</text><path d="M228.268-217.753C213.118-205.01 189.726-185.335 172.117-170.518" stroke="#007ACC" stroke-width="0.740481" fill="none" transform="matrix(1.00013 0 0 1 75.9623 616.795)"/><path d="M173.865-168.608 166.534-165.823 170.533-172.577 173.865-168.608Z" stroke="#007ACC" stroke-width="0.740481" fill="#007ACC" transform="matrix(1.00013 0 0 1 75.9623 616.795)"/><text font-family="Times New Roman,Times New Roman_MSFontService,sans-serif" font-weight="400" font-size="14" transform="matrix(0.740577 0 0 0.740481 288.806 422)">Φ</text><path d="M93.0193-160.485C93.0193-161.817 78.5429-162.906 60.7195-162.906 42.8961-162.906 28.4197-161.817 28.4197-160.485 28.4197-160.485 28.4197-138.67 28.4197-138.67 28.4197-137.337 42.8961-136.249 60.7195-136.249 78.5429-136.249 93.0193-137.337 93.0193-138.67 93.0193-138.67 93.0193-160.485 93.0193-160.485" stroke="#000000" stroke-width="0.740481" fill="#FFFFFF" transform="matrix(1.00013 0 0 1 75.9623 616.795)"/><path d="M93.0193-160.485C93.0193-159.144 78.5429-158.056 60.7195-158.056 42.8961-158.056 28.4197-159.144 28.4197-160.485" stroke="#000000" stroke-width="0.740481" fill="none" transform="matrix(1.00013 0 0 1 75.9623 616.795)"/><text font-family="Times New Roman,Times New Roman_MSFontService,sans-serif" font-weight="400" font-size="14" transform="matrix(0.740577 0 0 0.740481 109.62 471)">Full Space </text><text font-family="Times New Roman,Times New Roman_MSFontService,sans-serif" font-weight="400" font-size="14" transform="matrix(0.740577 0 0 0.740481 156.271 471)">Π</text><path d="M93.1452-149.577C98.9135-149.577 104.682-149.577 110.45-149.577" stroke="#000000" stroke-width="0.740481" fill="none" transform="matrix(1.00013 0 0 1 75.9623 616.795)"/><path d="M110.376-152.169 117.781-149.577 110.376-146.986 110.376-152.169Z" stroke="#000000" stroke-width="0.740481" transform="matrix(1.00013 0 0 1 75.9623 616.795)"/><path d="M117.277-99.965 42.6665-99.965 42.6665-69.6052 117.277-69.6052 117.277-99.965Z" stroke="#000000" stroke-width="0.740481" fill="#CDF1D1" transform="matrix(1.00013 0 0 1 75.9623 616.795)"/><text font-family="Times New Roman,Times New Roman_MSFontService,sans-serif" font-weight="400" font-size="14" transform="matrix(0.740577 0 0 0.740481 143.85 530)">Prune</text><text font-family="Times New Roman,Times New Roman_MSFontService,sans-serif" font-weight="400" font-size="14" transform="matrix(0.740577 0 0 0.740481 124.063 542)">(</text><text font-family="Times New Roman,Times New Roman_MSFontService,sans-serif" font-weight="400" font-size="14" transform="matrix(0.740577 0 0 0.740481 127.516 542)">UCB </text><text font-family="Times New Roman,Times New Roman_MSFontService,sans-serif" font-weight="400" font-size="14" transform="matrix(0.740577 0 0 0.740481 151.426 542)">&lt; </text><text font-family="Times New Roman,Times New Roman_MSFontService,sans-serif" font-weight="400" font-size="14" transform="matrix(0.740577 0 0 0.740481 159.865 542)">best‑</text><text font-family="Times New Roman,Times New Roman_MSFontService,sans-serif" font-weight="400" font-size="14" transform="matrix(0.740577 0 0 0.740481 180.019 542)">ε</text><text font-family="Times New Roman,Times New Roman_MSFontService,sans-serif" font-weight="400" font-size="14" transform="matrix(0.740577 0 0 0.740481 184.373 542)">)</text><path d="M132.294-134.153C123.268-125.763 111.813-115.115 101.92-105.918" stroke="#000000" stroke-width="0.740481" fill="none" transform="matrix(1.00013 0 0 1 75.9623 616.795)"/><path d="M103.697-104.038 96.5069-100.891 100.165-107.829 103.697-104.038Z" stroke="#000000" stroke-width="0.740481" transform="matrix(1.00013 0 0 1 75.9623 616.795)"/><text font-family="Times New Roman,Times New Roman_MSFontService,sans-serif" font-weight="400" font-size="9" transform="matrix(0.740577 0 0 0.740481 193.813 502)">fail</text><path d="M177.434-99.965 130.606-99.965 130.606-69.6052 177.434-69.6052 177.434-99.965Z" stroke="#000000" stroke-width="0.740481" fill="#CDF1D1" transform="matrix(1.00013 0 0 1 75.9623 616.795)"/><text font-family="Times New Roman,Times New Roman_MSFontService,sans-serif" font-weight="400" font-size="14" transform="matrix(0.740577 0 0 0.740481 211.868 530)">Evaluate</text><text font-family="Times New Roman,Times New Roman_MSFontService,sans-serif" font-weight="400" font-size="14" transform="matrix(0.740577 0 0 0.740481 219.515 542)">f</text><text font-family="Times New Roman,Times New Roman_MSFontService,sans-serif" font-weight="400" font-size="14" transform="matrix(0.740577 0 0 0.740481 222.968 542)">(</text><text font-family="Times New Roman,Times New Roman_MSFontService,sans-serif" font-weight="400" font-size="14" transform="matrix(0.740577 0 0 0.740481 226.42 542)">π</text><text font-family="Cambria Math,Cambria Math_MSFontService,sans-serif" font-weight="400" font-size="14" transform="matrix(0.740577 0 0 0.740481 231.655 542)">⋆</text><text font-family="Times New Roman,Times New Roman_MSFontService,sans-serif" font-weight="400" font-size="14" transform="matrix(0.740577 0 0 0.740481 237.037 542)">)</text><path d="M149.474-134.153C150.177-126.563 151.066-117.122 151.865-108.584" stroke="#000000" stroke-width="0.740481" fill="none" transform="matrix(1.00013 0 0 1 75.9623 616.795)"/><path d="M154.442-108.858 152.547-101.246 149.281-108.377 154.442-108.858Z" stroke="#000000" stroke-width="0.740481" transform="matrix(1.00013 0 0 1 75.9623 616.795)"/><text font-family="Times New Roman,Times New Roman_MSFontService,sans-serif" font-weight="400" font-size="9" transform="matrix(0.740577 0 0 0.740481 227.484 502)">pass</text><path d="M176.323-42.2074 122.831-42.2074 122.831-11.8477 176.323-11.8477 176.323-42.2074Z" stroke="#000000" stroke-width="0.740481" fill="#CDF1D1" transform="matrix(1.00013 0 0 1 75.9623 616.795)"/><text font-family="Times New Roman,Times New Roman_MSFontService,sans-serif" font-weight="400" font-size="14" transform="matrix(0.740577 0 0 0.740481 204.395 587)">Expand </text><text font-family="Times New Roman,Times New Roman_MSFontService,sans-serif" font-weight="400" font-size="14" transform="matrix(0.740577 0 0 0.740481 238.658 587)">&amp;</text><text font-family="Times New Roman,Times New Roman_MSFontService,sans-serif" font-weight="400" font-size="14" transform="matrix(0.740577 0 0 0.740481 213.252 600)">Top‑k</text><path d="M152.85-69.2572C152.406-63.637 151.895-57.0911 151.399-50.8785" stroke="#000000" stroke-width="0.740481" fill="none" transform="matrix(1.00013 0 0 1 75.9623 616.795)"/><path d="M153.991-50.7526 150.829-43.5699 148.822-51.1599 153.991-50.7526Z" stroke="#000000" stroke-width="0.740481" transform="matrix(1.00013 0 0 1 75.9623 616.795)"/><path d="M107.74-40.3562 105.519-43.3182 89.9685-43.3182 87.747-40.3562 31.4705-40.3562 31.4705-13.6989 107.74-13.6989 107.74-40.3562Z" stroke="#000000" stroke-width="0.740481" fill="#FFFFFF" transform="matrix(1.00013 0 0 1 75.9623 616.795)"/><text font-family="Times New Roman,Times New Roman_MSFontService,sans-serif" font-weight="400" font-size="14" transform="matrix(0.740577 0 0 0.740481 112.46 594)">Candidate Set S</text><path d="M131.843-69.2572C120.758-61.8672 107.274-52.8778 95.6924-45.162" stroke="#000000" stroke-width="0.740481" fill="none" transform="matrix(1.00013 0 0 1 75.9623 616.795)"/><path d="M97.2992-43.1182 89.7019-41.1634 94.4262-47.4278 97.2992-43.1182Z" stroke="#000000" stroke-width="0.740481" transform="matrix(1.00013 0 0 1 75.9623 616.795)"/><path d="M122.468-39.1937C119.877-40.2304 117.277-41.2522 114.775-42.2074 80.2534-55.3806 57.6761-39.4825 36.2836-69.6052 23.651-87.3916 34.5435-111.894 45.5322-128.918" stroke="#000000" stroke-width="0.740481" stroke-dasharray="0.740481 3.70241" fill="none" transform="matrix(1.00013 0 0 1 75.9623 616.795)"/><path d="M43.3848-130.369 49.7085-135.019 47.6648-127.444 43.3848-130.369Z" stroke="#000000" stroke-width="0.740481" transform="matrix(1.00013 0 0 1 75.9623 616.795)"/><path d="M91.3606-509.821 38.9641-509.821 38.9641-479.462 91.3606-479.462 91.3606-509.821Z" stroke="#000000" stroke-width="0.740481" fill="#FFE5CC" transform="matrix(1.00013 0 0 1 75.9623 616.795)"/><text font-family="Times New Roman,Times New Roman_MSFontService,sans-serif" font-weight="400" font-size="14" transform="matrix(0.740577 0 0 0.740481 124.141 120)">Monitor</text><text font-family="Times New Roman,Times New Roman_MSFontService,sans-serif" font-weight="400" font-size="14" transform="matrix(0.740577 0 0 0.740481 120.599 132)">{</text><text font-family="Times New Roman,Times New Roman_MSFontService,sans-serif" font-weight="400" font-size="14" transform="matrix(0.740577 0 0 0.740481 125.576 132)">Sil</text><text font-family="Times New Roman,Times New Roman_MSFontService,sans-serif" font-weight="400" font-size="14" transform="matrix(0.740577 0 0 0.740481 137.103 132)">, </text><text font-family="Times New Roman,Times New Roman_MSFontService,sans-serif" font-weight="400" font-size="14" transform="matrix(0.740577 0 0 0.740481 142.287 132)">DB</text><text font-family="Times New Roman,Times New Roman_MSFontService,sans-serif" font-weight="400" font-size="14" transform="matrix(0.740577 0 0 0.740481 156.69 132)">}</text><path d="M35.4172-40.6672C17.8086-49.7529 0-63.9184 0-84.0446 0-426.147 0-426.147 0-426.147 0-446.71 15.7871-463.445 31.8185-475.137" stroke="#3AB54A" stroke-width="0.740481" fill="none" transform="matrix(1.00013 0 0 1 75.9623 616.795)"/><path d="M30.1672-477.144 37.7349-479.203 33.0995-472.871 30.1672-477.144Z" stroke="#3AB54A" stroke-width="0.740481" fill="#3AB54A" transform="matrix(1.00013 0 0 1 75.9623 616.795)"/><text font-family="Times New Roman,Times New Roman_MSFontService,sans-serif" font-weight="400" font-size="14" transform="matrix(0.740577 0 0 0.740481 75.8481 356)">π̂</text><path d="M65.1624-438.735 20.4965-425.407 65.1624-412.078 109.828-425.407 65.1624-438.735Z" stroke="#000000" stroke-width="0.740481" fill="#FFE5CC" transform="matrix(1.00013 0 0 1 75.9623 616.795)"/><text font-family="Times New Roman,Times New Roman_MSFontService,sans-serif" font-weight="400" font-size="14" transform="matrix(0.740577 0 0 0.740481 123.47 195)">Trigger</text><text font-family="Times New Roman,Times New Roman_MSFontService,sans-serif" font-weight="400" font-size="14" transform="matrix(0.740577 0 0 0.740481 154.194 195)">?</text><path d="M65.1624-479.203C65.1624-469.932 65.1624-457.803 65.1624-447.48" stroke="#000000" stroke-width="0.740481" fill="none" transform="matrix(1.00013 0 0 1 75.9623 616.795)"/><path d="M67.754-447.517 65.1624-440.112 62.5707-447.517 67.754-447.517Z" stroke="#000000" stroke-width="0.740481" transform="matrix(1.00013 0 0 1 75.9623 616.795)"/><path d="M96.3514-375.794 51.7448-375.794 51.7448-349.137 96.3514-349.137 96.3514-375.794Z" stroke="#000000" stroke-width="0.740481" fill="#FFE5CC" transform="matrix(1.00013 0 0 1 75.9623 616.795)"/><text font-family="Times New Roman,Times New Roman_MSFontService,sans-serif" font-weight="400" font-size="14" transform="matrix(0.740577 0 0 0.740481 133.179 258)">Local </text><text font-family="Times New Roman,Times New Roman_MSFontService,sans-serif" font-weight="400" font-size="14" transform="matrix(0.740577 0 0 0.740481 159.373 258)">Θ</text><path d="M66.9617-412.226C68.1169-404.251 69.6423-393.699 70.9825-384.421" stroke="#000000" stroke-width="0.740481" fill="none" transform="matrix(1.00013 0 0 1 75.9623 616.795)"/><path d="M73.5372-384.858 72.034-377.157 68.4057-384.117 73.5372-384.858Z" stroke="#000000" stroke-width="0.740481" transform="matrix(1.00013 0 0 1 75.9623 616.795)"/><text font-family="Times New Roman,Times New Roman_MSFontService,sans-serif" font-weight="400" font-size="9" transform="matrix(0.740577 0 0 0.740481 146.111 226)">yes</text><path d="M106.17-310.262 49.3309-310.262 49.3309-283.604 106.17-283.604 106.17-310.262Z" stroke="#000000" stroke-width="0.740481" fill="#FFE5CC" transform="matrix(1.00013 0 0 1 75.9623 616.795)"/><text font-family="Times New Roman,Times New Roman_MSFontService,sans-serif" font-weight="400" font-size="14" transform="matrix(0.740577 0 0 0.740481 130.83 324)">Probe </text><text font-family="Times New Roman,Times New Roman_MSFontService,sans-serif" font-weight="400" font-size="14" transform="matrix(0.740577 0 0 0.740481 157.611 324)">10</text><text font-family="Times New Roman,Times New Roman_MSFontService,sans-serif" font-weight="400" font-size="14" transform="matrix(0.740577 0 0 0.740481 167.979 324)">%</text><path d="M74.7812-349.07C75.2773-340.444 75.9512-328.811 76.5287-318.792" stroke="#000000" stroke-width="0.740481" fill="none" transform="matrix(1.00013 0 0 1 75.9623 616.795)"/><path d="M79.1056-319.184 76.9434-311.639 73.9297-318.881 79.1056-319.184Z" stroke="#000000" stroke-width="0.740481" transform="matrix(1.00013 0 0 1 75.9623 616.795)"/><path d="M124.216-244.729 75.7142-244.729 75.7142-218.072 124.216-218.072 124.216-244.729Z" stroke="#000000" stroke-width="0.740481" fill="#FFE5CC" transform="matrix(1.00013 0 0 1 75.9623 616.795)"/><text font-family="Times New Roman,Times New Roman_MSFontService,sans-serif" font-weight="400" font-size="14" transform="matrix(0.740577 0 0 0.740481 157.057 389)">Update </text><text font-family="Times New Roman,Times New Roman_MSFontService,sans-serif" font-weight="400" font-size="14" transform="matrix(0.740577 0 0 0.740481 189.589 389)">π̂</text><path d="M82.1416-283.538C85.1628-274.822 89.2502-263.041 92.7453-252.956" stroke="#000000" stroke-width="0.740481" fill="none" transform="matrix(1.00013 0 0 1 75.9623 616.795)"/><path d="M95.1667-253.889 95.1445-246.047 90.2647-252.193 95.1667-253.889Z" stroke="#000000" stroke-width="0.740481" transform="matrix(1.00013 0 0 1 75.9623 616.795)"/><path d="M107.696-217.753C115.026-205.513 126.193-186.883 134.923-172.303" stroke="#D87A00" stroke-width="0.740481" stroke-dasharray="3.70241 1.48096" fill="none" transform="matrix(1.00013 0 0 1 75.9623 616.795)"/><path d="M137.078-173.747 138.663-166.068 132.635-171.088 137.078-173.747Z" stroke="#D87A00" stroke-width="0.740481" fill="#D87A00" transform="matrix(1.00013 0 0 1 75.9623 616.795)"/><text font-family="Times New Roman,Times New Roman_MSFontService,sans-serif" font-weight="400" font-size="14" transform="matrix(0.740577 0 0 0.740481 198.662 422)">ΔΦ</text><path d="M107.725-244.877C114.634-257.451 123.66-277.458 123.66-296.193 123.66-426.147 123.66-426.147 123.66-426.147 123.66-445.555 109.739-462.149 95.4851-474.056" stroke="#000000" stroke-width="0.740481" stroke-dasharray="3.70241 1.48096" fill="none" transform="matrix(1.00013 0 0 1 75.9623 616.795)"/><path d="M94.0559-471.887 89.8352-478.499 97.2622-475.959 94.0559-471.887Z" stroke="#000000" stroke-width="0.740481" transform="matrix(1.00013 0 0 1 75.9623 616.795)"/><path d="M201.13-505.549C201.13-506.882 186.653-507.97 168.83-507.97 151.006-507.97 136.53-506.882 136.53-505.549 136.53-505.549 136.53-483.734 136.53-483.734 136.53-482.401 151.006-481.313 168.83-481.313 186.653-481.313 201.13-482.401 201.13-483.734 201.13-483.734 201.13-505.549 201.13-505.549" stroke="#000000" stroke-width="0.740481" fill="#FFFFFF" transform="matrix(1.00013 0 0 1 75.9623 616.795)"/><path d="M201.13-505.549C201.13-504.209 186.653-503.12 168.83-503.12 151.006-503.12 136.53-504.209 136.53-505.549" stroke="#000000" stroke-width="0.740481" fill="none" transform="matrix(1.00013 0 0 1 75.9623 616.795)"/><text font-family="Times New Roman,Times New Roman_MSFontService,sans-serif" font-weight="400" font-size="14" transform="matrix(0.740577 0 0 0.740481 221.539 126)">Dataset D</text><text font-family="Cambria Math,Cambria Math_MSFontService,sans-serif" font-weight="400" font-size="14" transform="matrix(0.740577 0 0 0.740481 262.707 126)">⋆</text><path d="M184.343-480.995C196.161-471.168 212.659-457.447 226.187-446.184" stroke="#000000" stroke-width="0.740481" stroke-dasharray="3.70241 1.48096" fill="none" transform="matrix(1.00013 0 0 1 75.9623 616.795)"/><path d="M227.668-448.332 231.704-441.601 224.351-444.348 227.668-448.332Z" stroke="#000000" stroke-width="0.740481" transform="matrix(1.00013 0 0 1 75.9623 616.795)"/><text font-family="Times New Roman,Times New Roman_MSFontService,sans-serif" font-weight="400" font-size="14" transform="matrix(0.740577 0 0 0.740481 292.751 161)">q</text><path d="M164.757-481.061C160.84-467.54 155.501-445.57 155.501-426.147 155.501-426.147 155.501-426.147 155.501-230.66 155.501-211.274 153.339-189.378 151.347-173.339" stroke="#000000" stroke-width="0.740481" stroke-dasharray="3.70241 1.48096" fill="none" transform="matrix(1.00013 0 0 1 75.9623 616.795)"/><path d="M153.946-173.206 150.421-166.201 148.807-173.88 153.946-173.206Z" stroke="#000000" stroke-width="0.740481" transform="matrix(1.00013 0 0 1 75.9623 616.795)"/><text font-family="Times New Roman,Times New Roman_MSFontService,sans-serif" font-weight="400" font-size="14" transform="matrix(0.740577 0 0 0.740481 231.2 291)">q</text><text font-family="Times New Roman,Times New Roman_MSFontService,sans-serif" font-weight="400" font-size="14" transform="matrix(0.740577 0 0 0.740481 236.384 291)">,</text><text font-family="Times New Roman,Times New Roman_MSFontService,sans-serif" font-weight="400" font-size="14" transform="matrix(0.740577 0 0 0.740481 238.976 291)">a</text><text font-family="Times New Roman,Times New Roman_MSFontService,sans-serif" font-weight="400" font-size="14" transform="matrix(0.740577 0 0 0.740481 243.578 291)">_</text><text font-family="Times New Roman,Times New Roman_MSFontService,sans-serif" font-weight="400" font-size="14" transform="matrix(0.740577 0 0 0.740481 248.762 291)">mask</text></g></svg>