<?xml version="1.0" encoding="UTF-8" standalone="no"?>
<!DOCTYPE svg PUBLIC "-//W3C//DTD SVG 1.1//EN"
 "http://www.w3.org/Graphics/SVG/1.1/DTD/svg11.dtd">
<!-- Generated by graphviz version 12.2.1 (20241206.2353)
 -->
<!-- Title: framework_balanced2 Pages: 1 -->
<svg width="496pt" height="827pt"
 viewBox="0.00 0.00 496.00 827.47" xmlns="http://www.w3.org/2000/svg" xmlns:xlink="http://www.w3.org/1999/xlink">
<g id="graph0" class="graph" transform="scale(1 1) rotate(0) translate(4 823.47)">
<title>framework_balanced2</title>
<polygon fill="white" stroke="none" points="-4,4 -4,-823.47 492,-823.47 492,4 -4,4"/>
<g id="clust1" class="cluster">
<title>cluster_feat</title>
<path fill="#e6f2ff" stroke="#007acc" d="M20,-329.38C20,-329.38 134,-329.38 134,-329.38 140,-329.38 146,-335.38 146,-341.38 146,-341.38 146,-799.34 146,-799.34 146,-805.34 140,-811.34 134,-811.34 134,-811.34 20,-811.34 20,-811.34 14,-811.34 8,-805.34 8,-799.34 8,-799.34 8,-341.38 8,-341.38 8,-335.38 14,-329.38 20,-329.38"/>
<text text-anchor="middle" x="77" y="-796.89" font-family="C:\Windows\Fonts\simsun.ttc" font-size="11.00">特征增强（离线）</text>
</g>
<g id="clust2" class="cluster">
<title>cluster_search</title>
<path fill="#e8ffe8" stroke="#3ab54a" d="M276,-438.75C276,-438.75 468,-438.75 468,-438.75 474,-438.75 480,-444.75 480,-450.75 480,-450.75 480,-799.47 480,-799.47 480,-805.47 474,-811.47 468,-811.47 468,-811.47 276,-811.47 276,-811.47 270,-811.47 264,-805.47 264,-799.47 264,-799.47 264,-450.75 264,-450.75 264,-444.75 270,-438.75 276,-438.75"/>
<text text-anchor="middle" x="372" y="-797.02" font-family="C:\Windows\Fonts\simsun.ttc" font-size="11.00">置信&#45;UCB 搜索</text>
</g>
<g id="clust5" class="cluster">
<title>cluster_tune</title>
<path fill="#fff2e6" stroke="#d87a00" d="M251,-8C251,-8 371,-8 371,-8 377,-8 383,-14 383,-20 383,-20 383,-391.5 383,-391.5 383,-397.5 377,-403.5 371,-403.5 371,-403.5 251,-403.5 251,-403.5 245,-403.5 239,-397.5 239,-391.5 239,-391.5 239,-20 239,-20 239,-14 245,-8 251,-8"/>
<text text-anchor="middle" x="311" y="-389.05" font-family="C:\Windows\Fonts\simsun.ttc" font-size="11.00">动态调优（在线）</text>
</g>
<!-- hist -->
<g id="node1" class="node">
<title>hist</title>
<polygon fill="#ffffff" stroke="black" points="131,-783.34 128,-787.34 107,-787.34 104,-783.34 55,-783.34 55,-743.09 131,-743.09 131,-783.34"/>
<text text-anchor="middle" x="93" y="-766.04" font-family="C:\Windows\Fonts\simsun.ttc" font-size="14.00">历史</text>
<text text-anchor="middle" x="93" y="-751.04" font-family="C:\Windows\Fonts\simsun.ttc" font-size="14.00">⟨q,a,f⟩</text>
</g>
<!-- extract -->
<g id="node2" class="node">
<title>extract</title>
<polygon fill="#c6e2ff" stroke="black" points="121.62,-685.25 64.38,-685.25 64.38,-645 121.62,-645 121.62,-685.25"/>
<text text-anchor="middle" x="93" y="-667.95" font-family="C:\Windows\Fonts\simsun.ttc" font-size="14.00">特征</text>
<text text-anchor="middle" x="93" y="-652.95" font-family="C:\Windows\Fonts\simsun.ttc" font-size="14.00">提取 z</text>
</g>
<!-- hist&#45;&gt;extract -->
<g id="edge1" class="edge">
<title>hist&#45;&gt;extract</title>
<path fill="none" stroke="black" d="M93,-742.77C93,-729.62 93,-711.97 93,-696.92"/>
<polygon fill="black" stroke="black" points="96.5,-697.06 93,-687.06 89.5,-697.06 96.5,-697.06"/>
</g>
<!-- ranker -->
<g id="node3" class="node">
<title>ranker</title>
<polygon fill="#c6e2ff" stroke="black" points="138.12,-583.25 17.88,-583.25 17.88,-547.25 138.12,-547.25 138.12,-583.25"/>
<text text-anchor="middle" x="78" y="-560.58" font-family="C:\Windows\Fonts\simsun.ttc" font-size="14.00">LightGBM 排序器</text>
</g>
<!-- extract&#45;&gt;ranker -->
<g id="edge2" class="edge">
<title>extract&#45;&gt;ranker</title>
<path fill="none" stroke="black" d="M90.04,-644.79C87.84,-630.44 84.81,-610.66 82.34,-594.54"/>
<polygon fill="black" stroke="black" points="85.86,-594.43 80.89,-585.08 78.94,-595.49 85.86,-594.43"/>
</g>
<!-- qrf -->
<g id="node4" class="node">
<title>qrf</title>
<polygon fill="#c6e2ff" stroke="black" points="117.75,-486 16.25,-486 16.25,-450 117.75,-450 117.75,-486"/>
<text text-anchor="middle" x="67" y="-462.2" font-family="C:\Windows\Fonts\simsun.ttc" font-size="14.00">分位随机森林</text>
</g>
<!-- ranker&#45;&gt;qrf -->
<g id="edge3" class="edge">
<title>ranker&#45;&gt;qrf</title>
<path fill="none" stroke="black" d="M75.98,-546.78C74.4,-533.08 72.17,-513.74 70.32,-497.77"/>
<polygon fill="black" stroke="black" points="73.8,-497.4 69.18,-487.86 66.85,-498.2 73.8,-497.4"/>
<text text-anchor="middle" x="82.16" y="-512.2" font-family="C:\Windows\Fonts\simsun.ttc" font-size="9.00">残差</text>
</g>
<!-- phi -->
<g id="node5" class="node">
<title>phi</title>
<polygon fill="#ffffff" stroke="black" points="122,-373.38 46,-373.38 46,-369.38 42,-369.38 42,-365.38 46,-365.38 46,-345.38 42,-345.38 42,-341.38 46,-341.38 46,-337.38 122,-337.38 122,-373.38"/>
<polyline fill="none" stroke="black" points="46,-369.38 50,-369.38 50,-365.38 46,-365.38"/>
<polyline fill="none" stroke="black" points="46,-345.38 50,-345.38 50,-341.38 46,-341.38"/>
<text text-anchor="middle" x="84" y="-350.7" font-family="C:\Windows\Fonts\simsun.ttc" font-size="14.00">预测器 Φ</text>
</g>
<!-- ranker&#45;&gt;phi -->
<g id="edge4" class="edge">
<title>ranker&#45;&gt;phi</title>
<path fill="none" stroke="black" d="M93.54,-546.96C105.29,-532.64 120.48,-511.16 127,-489.25 133.4,-467.74 132.35,-460.55 127,-438.75 122.14,-418.96 111.61,-398.64 102.18,-383.13"/>
<polygon fill="black" stroke="black" points="105.33,-381.56 97.03,-374.97 99.41,-385.3 105.33,-381.56"/>
</g>
<!-- qrf&#45;&gt;phi -->
<g id="edge5" class="edge">
<title>qrf&#45;&gt;phi</title>
<path fill="none" stroke="black" d="M69.66,-449.71C72.33,-432.34 76.49,-405.27 79.64,-384.74"/>
<polygon fill="black" stroke="black" points="83.07,-385.45 81.13,-375.03 76.15,-384.39 83.07,-385.45"/>
</g>
<!-- ucb -->
<g id="node8" class="node">
<title>ucb</title>
<polygon fill="#cdf1d1" stroke="black" points="256.25,-689 181.75,-689 181.75,-641.25 256.25,-641.25 256.25,-689"/>
<text text-anchor="middle" x="219" y="-671.7" font-family="C:\Windows\Fonts\simsun.ttc" font-size="14.00">UCB 选择</text>
<text text-anchor="middle" x="219" y="-654.45" font-family="C:\Windows\Fonts\simsun.ttc" font-size="14.00">π⋆</text>
</g>
<!-- phi&#45;&gt;ucb -->
<g id="edge21" class="edge">
<title>phi&#45;&gt;ucb</title>
<path fill="none" stroke="#007acc" d="M99.44,-373.81C108.09,-384.22 118.59,-398 126,-411.5 136.9,-431.36 184.62,-566.01 207.15,-630.21"/>
<polygon fill="#007acc" stroke="#007acc" points="203.81,-631.26 210.42,-639.54 210.41,-628.95 203.81,-631.26"/>
<text text-anchor="middle" x="174.18" y="-511.2" font-family="C:\Windows\Fonts\simsun.ttc" font-size="14.00">Φ</text>
</g>
<!-- right_dummy -->
<!-- space -->
<g id="node7" class="node">
<title>space</title>
<path fill="#ffffff" stroke="black" d="M434.75,-777.95C434.75,-779.75 414.69,-781.22 390,-781.22 365.31,-781.22 345.25,-779.75 345.25,-777.95 345.25,-777.95 345.25,-748.49 345.25,-748.49 345.25,-746.69 365.31,-745.22 390,-745.22 414.69,-745.22 434.75,-746.69 434.75,-748.49 434.75,-748.49 434.75,-777.95 434.75,-777.95"/>
<path fill="none" stroke="black" d="M434.75,-777.95C434.75,-776.14 414.69,-774.67 390,-774.67 365.31,-774.67 345.25,-776.14 345.25,-777.95"/>
<text text-anchor="middle" x="390" y="-758.54" font-family="C:\Windows\Fonts\simsun.ttc" font-size="14.00">完整空间 Π</text>
</g>
<!-- right_dummy&#45;&gt;space -->
<!-- space&#45;&gt;ucb -->
<g id="edge7" class="edge">
<title>space&#45;&gt;ucb</title>
<path fill="none" stroke="black" d="M359.82,-745.26C333.98,-730.74 296.32,-709.58 266.45,-692.79"/>
<polygon fill="black" stroke="black" points="268.39,-689.87 257.96,-688.02 264.97,-695.97 268.39,-689.87"/>
</g>
<!-- prune -->
<g id="node9" class="node">
<title>prune</title>
<polygon fill="#cdf1d1" stroke="black" points="380.12,-585.38 271.88,-585.38 271.88,-545.12 380.12,-545.12 380.12,-585.38"/>
<text text-anchor="middle" x="326" y="-568.08" font-family="C:\Windows\Fonts\simsun.ttc" font-size="14.00">剪枝</text>
<text text-anchor="middle" x="326" y="-553.08" font-family="C:\Windows\Fonts\simsun.ttc" font-size="14.00">(UCB &lt; best&#45;ε)</text>
</g>
<!-- ucb&#45;&gt;prune -->
<g id="edge8" class="edge">
<title>ucb&#45;&gt;prune</title>
<path fill="none" stroke="black" d="M244.36,-640.93C260.04,-626.58 280.23,-608.11 296.61,-593.13"/>
<polygon fill="black" stroke="black" points="298.65,-596.01 303.67,-586.68 293.93,-590.84 298.65,-596.01"/>
<text text-anchor="middle" x="291.08" y="-609.95" font-family="C:\Windows\Fonts\times.ttf" font-size="14.00">fail</text>
</g>
<!-- eval -->
<g id="node10" class="node">
<title>eval</title>
<polygon fill="#cdf1d1" stroke="black" points="452,-588 398,-588 398,-542.5 452,-542.5 452,-588"/>
<text text-anchor="middle" x="425" y="-570.7" font-family="C:\Windows\Fonts\simsun.ttc" font-size="14.00">评估</text>
<text text-anchor="middle" x="425" y="-555.7" font-family="C:\Windows\Fonts\simsun.ttc" font-size="14.00">f(π⋆)</text>
</g>
<!-- ucb&#45;&gt;eval -->
<g id="edge9" class="edge">
<title>ucb&#45;&gt;eval</title>
<path fill="none" stroke="black" d="M256.44,-643C257.64,-642.4 258.82,-641.82 260,-641.25 279.04,-632.09 284.46,-631.3 304,-623.25 338.86,-608.89 350.67,-606.74 387.73,-588.35"/>
<polygon fill="black" stroke="black" points="389.02,-591.62 396.37,-583.99 385.87,-585.37 389.02,-591.62"/>
<text text-anchor="middle" x="361.93" y="-609.95" font-family="C:\Windows\Fonts\times.ttf" font-size="14.00">pass</text>
</g>
<!-- expand -->
<g id="node11" class="node">
<title>expand</title>
<polygon fill="#cdf1d1" stroke="black" points="472.38,-489.25 413.62,-489.25 413.62,-446.75 472.38,-446.75 472.38,-489.25"/>
<text text-anchor="middle" x="443" y="-471.95" font-family="C:\Windows\Fonts\simsun.ttc" font-size="14.00">扩展 &amp;</text>
<text text-anchor="middle" x="443" y="-454.7" font-family="C:\Windows\Fonts\simsun.ttc" font-size="14.00">Top‑k</text>
</g>
<!-- eval&#45;&gt;expand -->
<g id="edge10" class="edge">
<title>eval&#45;&gt;expand</title>
<path fill="none" stroke="black" d="M429.17,-542.16C431.49,-529.92 434.41,-514.48 436.96,-500.94"/>
<polygon fill="black" stroke="black" points="440.4,-501.63 438.81,-491.16 433.52,-500.33 440.4,-501.63"/>
</g>
<!-- cand -->
<g id="node12" class="node">
<title>cand</title>
<polygon fill="#ffffff" stroke="black" points="395.62,-486 392.62,-490 371.62,-490 368.62,-486 308.38,-486 308.38,-450 395.62,-450 395.62,-486"/>
<text text-anchor="middle" x="352" y="-463.32" font-family="C:\Windows\Fonts\simsun.ttc" font-size="14.00">候选集合 S</text>
</g>
<!-- eval&#45;&gt;cand -->
<g id="edge12" class="edge">
<title>eval&#45;&gt;cand</title>
<path fill="none" stroke="black" d="M408.07,-542.16C397.36,-528.18 383.46,-510.04 372.17,-495.32"/>
<polygon fill="black" stroke="black" points="374.98,-493.23 366.12,-487.42 369.42,-497.49 374.98,-493.23"/>
</g>
<!-- expand&#45;&gt;space -->
<g id="edge11" class="edge">
<title>expand&#45;&gt;space</title>
<path fill="none" stroke="black" stroke-dasharray="1,5" d="M450.45,-489.73C458.01,-513.55 467.71,-553.76 461,-588 450.29,-642.66 422.34,-701.81 404.87,-735.21"/>
<polygon fill="black" stroke="black" points="401.92,-733.3 400.32,-743.78 408.1,-736.59 401.92,-733.3"/>
</g>
<!-- monitor -->
<g id="node14" class="node">
<title>monitor</title>
<polygon fill="#ffe5cc" stroke="black" points="370,-375.5 300,-375.5 300,-335.25 370,-335.25 370,-375.5"/>
<text text-anchor="middle" x="335" y="-358.2" font-family="C:\Windows\Fonts\simsun.ttc" font-size="14.00">监控</text>
<text text-anchor="middle" x="335" y="-343.2" font-family="C:\Windows\Fonts\simsun.ttc" font-size="14.00">{Sil, DB}</text>
</g>
<!-- cand&#45;&gt;monitor -->
<!-- cand&#45;&gt;monitor -->
<g id="edge22" class="edge">
<title>cand&#45;&gt;monitor</title>
<path fill="none" stroke="#3ab54a" d="M341.74,-449.69C338.51,-443.33 335.37,-435.93 333.75,-428.75 330.71,-415.33 330.5,-400.15 331.26,-387.17"/>
<polygon fill="#3ab54a" stroke="#3ab54a" points="334.72,-387.74 332.04,-377.49 327.74,-387.18 334.72,-387.74"/>
<text text-anchor="middle" x="337.88" y="-415.45" font-family="C:\Windows\Fonts\simsun.ttc" font-size="14.00">π̂</text>
</g>
<!-- data -->
<g id="node13" class="node">
<title>data</title>
<path fill="#ffffff" stroke="black" d="M240.25,-780.38C240.25,-782.48 220.86,-784.19 197,-784.19 173.14,-784.19 153.75,-782.48 153.75,-780.38 153.75,-780.38 153.75,-746.06 153.75,-746.06 153.75,-743.96 173.14,-742.25 197,-742.25 220.86,-742.25 240.25,-743.96 240.25,-746.06 240.25,-746.06 240.25,-780.38 240.25,-780.38"/>
<path fill="none" stroke="black" d="M240.25,-780.38C240.25,-778.27 220.86,-776.56 197,-776.56 173.14,-776.56 153.75,-778.27 153.75,-780.38"/>
<text text-anchor="middle" x="197" y="-761.17" font-family="C:\Windows\Fonts\simsun.ttc" font-size="14.00">数据集 D⋆</text>
</g>
<!-- data&#45;&gt;extract -->
<g id="edge19" class="edge">
<title>data&#45;&gt;extract</title>
<path fill="none" stroke="black" stroke-dasharray="5,2" d="M174.94,-741.84C159.61,-727.67 139.01,-708.63 122.3,-693.19"/>
<polygon fill="black" stroke="black" points="124.79,-690.73 115.07,-686.52 120.04,-695.88 124.79,-690.73"/>
<text text-anchor="middle" x="158.07" y="-710.95" font-family="C:\Windows\Fonts\times.ttf" font-size="14.00">q</text>
</g>
<!-- data&#45;&gt;ucb -->
<g id="edge20" class="edge">
<title>data&#45;&gt;ucb</title>
<path fill="none" stroke="black" stroke-dasharray="5,2" d="M196.69,-741.76C196.95,-731.24 197.94,-718.28 200.75,-707 201.32,-704.7 202.02,-702.37 202.8,-700.05"/>
<polygon fill="black" stroke="black" points="206.03,-701.4 206.38,-690.81 199.5,-698.87 206.03,-701.4"/>
<text text-anchor="middle" x="230.38" y="-710.95" font-family="C:\Windows\Fonts\times.ttf" font-size="14.00">q,a_mask</text>
</g>
<!-- trigger -->
<g id="node15" class="node">
<title>trigger</title>
<polygon fill="#ffe5cc" stroke="black" points="301,-282 247,-264 301,-246 355,-264 301,-282"/>
<text text-anchor="middle" x="301" y="-258.2" font-family="C:\Windows\Fonts\simsun.ttc" font-size="14.00">触发？</text>
</g>
<!-- monitor&#45;&gt;trigger -->
<g id="edge13" class="edge">
<title>monitor&#45;&gt;trigger</title>
<path fill="none" stroke="black" d="M327.62,-334.98C322.72,-322.1 316.23,-305.04 310.88,-290.98"/>
<polygon fill="black" stroke="black" points="314.26,-290.01 307.43,-281.91 307.72,-292.5 314.26,-290.01"/>
</g>
<!-- local -->
<g id="node16" class="node">
<title>local</title>
<polygon fill="#ffe5cc" stroke="black" points="331.5,-198 270.5,-198 270.5,-162 331.5,-162 331.5,-198"/>
<text text-anchor="middle" x="301" y="-175.32" font-family="C:\Windows\Fonts\simsun.ttc" font-size="14.00">局部 Θ</text>
</g>
<!-- trigger&#45;&gt;local -->
<g id="edge14" class="edge">
<title>trigger&#45;&gt;local</title>
<path fill="none" stroke="black" d="M301,-245.61C301,-235.17 301,-221.64 301,-209.66"/>
<polygon fill="black" stroke="black" points="304.5,-209.88 301,-199.88 297.5,-209.88 304.5,-209.88"/>
<text text-anchor="middle" x="307.38" y="-219.45" font-family="C:\Windows\Fonts\simsun.ttc" font-size="9.00">yes</text>
</g>
<!-- probe -->
<g id="node17" class="node">
<title>probe</title>
<polygon fill="#ffe5cc" stroke="black" points="339.75,-125 262.25,-125 262.25,-89 339.75,-89 339.75,-125"/>
<text text-anchor="middle" x="301" y="-102.33" font-family="C:\Windows\Fonts\simsun.ttc" font-size="14.00">探测 10%</text>
</g>
<!-- local&#45;&gt;probe -->
<g id="edge15" class="edge">
<title>local&#45;&gt;probe</title>
<path fill="none" stroke="black" d="M301,-161.81C301,-154.23 301,-145.1 301,-136.54"/>
<polygon fill="black" stroke="black" points="304.5,-136.54 301,-126.54 297.5,-136.54 304.5,-136.54"/>
</g>
<!-- update -->
<g id="node18" class="node">
<title>update</title>
<polygon fill="#ffe5cc" stroke="black" points="330.75,-52 271.25,-52 271.25,-16 330.75,-16 330.75,-52"/>
<text text-anchor="middle" x="301" y="-29.32" font-family="C:\Windows\Fonts\simsun.ttc" font-size="14.00">更新 π̂</text>
</g>
<!-- probe&#45;&gt;update -->
<g id="edge16" class="edge">
<title>probe&#45;&gt;update</title>
<path fill="none" stroke="black" d="M301,-88.81C301,-81.23 301,-72.1 301,-63.54"/>
<polygon fill="black" stroke="black" points="304.5,-63.54 301,-53.54 297.5,-63.54 304.5,-63.54"/>
</g>
<!-- update&#45;&gt;ucb -->
<g id="edge23" class="edge">
<title>update&#45;&gt;ucb</title>
<path fill="none" stroke="#d87a00" stroke-dasharray="5,2" d="M270.93,-46.68C247.53,-57.97 219,-77.57 219,-106 219,-566.25 219,-566.25 219,-566.25 219,-587.26 219,-610.8 219,-629.53"/>
<polygon fill="#d87a00" stroke="#d87a00" points="215.5,-629.28 219,-639.28 222.5,-629.28 215.5,-629.28"/>
<text text-anchor="middle" x="228.75" y="-303.95" font-family="C:\Windows\Fonts\simsun.ttc" font-size="14.00">ΔΦ</text>
</g>
<!-- update&#45;&gt;monitor -->
<g id="edge17" class="edge">
<title>update&#45;&gt;monitor</title>
<path fill="none" stroke="black" stroke-dasharray="5,2" d="M331.11,-49.51C351.22,-61.53 374,-80.72 374,-106 374,-265 374,-265 374,-265 374,-286.31 364.57,-308.27 354.99,-325.09"/>
<polygon fill="black" stroke="black" points="352.05,-323.19 349.86,-333.55 358.04,-326.81 352.05,-323.19"/>
</g>
</g>
</svg>
